<mxfile host="app.diagrams.net" modified="2021-11-26T12:55:17.160Z" agent="5.0 (Macintosh; Intel Mac OS X 10_15_7) AppleWebKit/605.1.15 (KHTML, like Gecko) Version/15.1 Safari/605.1.15" etag="z5nJs1jpx2SWTNlmL7mc" version="15.8.6" type="github">
  <diagram id="C5RBs43oDa-KdzZeNtuy" name="Page-1">
    <mxGraphModel dx="5005" dy="2109" grid="1" gridSize="10" guides="1" tooltips="1" connect="1" arrows="1" fold="1" page="1" pageScale="1" pageWidth="827" pageHeight="1169" math="0" shadow="0">
      <root>
        <mxCell id="WIyWlLk6GJQsqaUBKTNV-0" />
        <mxCell id="WIyWlLk6GJQsqaUBKTNV-1" parent="WIyWlLk6GJQsqaUBKTNV-0" />
        <mxCell id="WIyWlLk6GJQsqaUBKTNV-2" value="" style="rounded=0;html=1;jettySize=auto;orthogonalLoop=1;fontSize=11;endArrow=block;endFill=0;endSize=8;strokeWidth=1;shadow=0;labelBackgroundColor=none;edgeStyle=orthogonalEdgeStyle;" parent="WIyWlLk6GJQsqaUBKTNV-1" source="WIyWlLk6GJQsqaUBKTNV-3" target="WIyWlLk6GJQsqaUBKTNV-6" edge="1">
          <mxGeometry relative="1" as="geometry" />
        </mxCell>
        <mxCell id="WIyWlLk6GJQsqaUBKTNV-3" value="ユーザーがアプリを開く" style="rounded=1;whiteSpace=wrap;html=1;fontSize=12;glass=0;strokeWidth=1;shadow=0;" parent="WIyWlLk6GJQsqaUBKTNV-1" vertex="1">
          <mxGeometry x="686" y="-410" width="120" height="40" as="geometry" />
        </mxCell>
        <mxCell id="WIyWlLk6GJQsqaUBKTNV-4" value="はい" style="rounded=0;html=1;jettySize=auto;orthogonalLoop=1;fontSize=11;endArrow=block;endFill=0;endSize=8;strokeWidth=1;shadow=0;labelBackgroundColor=none;edgeStyle=orthogonalEdgeStyle;entryX=0.5;entryY=0;entryDx=0;entryDy=0;" parent="WIyWlLk6GJQsqaUBKTNV-1" source="WIyWlLk6GJQsqaUBKTNV-6" target="WIyWlLk6GJQsqaUBKTNV-11" edge="1">
          <mxGeometry y="20" relative="1" as="geometry">
            <mxPoint as="offset" />
            <mxPoint x="746" y="-140" as="targetPoint" />
          </mxGeometry>
        </mxCell>
        <mxCell id="WIyWlLk6GJQsqaUBKTNV-5" value="いいえ" style="edgeStyle=orthogonalEdgeStyle;rounded=0;html=1;jettySize=auto;orthogonalLoop=1;fontSize=11;endArrow=block;endFill=0;endSize=8;strokeWidth=1;shadow=0;labelBackgroundColor=none;entryX=0;entryY=0.5;entryDx=0;entryDy=0;" parent="WIyWlLk6GJQsqaUBKTNV-1" source="WIyWlLk6GJQsqaUBKTNV-6" target="bPVKFgJAYgq4yAk7pe1J-0" edge="1">
          <mxGeometry y="10" relative="1" as="geometry">
            <mxPoint as="offset" />
            <mxPoint x="946" y="-280" as="targetPoint" />
          </mxGeometry>
        </mxCell>
        <mxCell id="WIyWlLk6GJQsqaUBKTNV-6" value="すでにログインしているか？" style="rhombus;whiteSpace=wrap;html=1;shadow=0;fontFamily=Helvetica;fontSize=12;align=center;strokeWidth=1;spacing=6;spacingTop=-4;" parent="WIyWlLk6GJQsqaUBKTNV-1" vertex="1">
          <mxGeometry x="621" y="-320" width="250" height="80" as="geometry" />
        </mxCell>
        <mxCell id="bPVKFgJAYgq4yAk7pe1J-8" style="edgeStyle=orthogonalEdgeStyle;rounded=0;orthogonalLoop=1;jettySize=auto;html=1;entryX=0.5;entryY=0;entryDx=0;entryDy=0;" edge="1" parent="WIyWlLk6GJQsqaUBKTNV-1" source="WIyWlLk6GJQsqaUBKTNV-11" target="bPVKFgJAYgq4yAk7pe1J-7">
          <mxGeometry relative="1" as="geometry">
            <Array as="points">
              <mxPoint x="746" y="30" />
              <mxPoint x="1065" y="30" />
            </Array>
          </mxGeometry>
        </mxCell>
        <mxCell id="WIyWlLk6GJQsqaUBKTNV-11" value="ログイン画面" style="rounded=1;whiteSpace=wrap;html=1;fontSize=12;glass=0;strokeWidth=1;shadow=0;" parent="WIyWlLk6GJQsqaUBKTNV-1" vertex="1">
          <mxGeometry x="686" y="-180" width="120" height="40" as="geometry" />
        </mxCell>
        <mxCell id="bPVKFgJAYgq4yAk7pe1J-5" value="いいえ" style="edgeStyle=orthogonalEdgeStyle;rounded=0;orthogonalLoop=1;jettySize=auto;html=1;entryX=0;entryY=0.5;entryDx=0;entryDy=0;" edge="1" parent="WIyWlLk6GJQsqaUBKTNV-1" source="bPVKFgJAYgq4yAk7pe1J-0" target="bPVKFgJAYgq4yAk7pe1J-4">
          <mxGeometry relative="1" as="geometry" />
        </mxCell>
        <mxCell id="bPVKFgJAYgq4yAk7pe1J-6" value="はい" style="edgeStyle=orthogonalEdgeStyle;rounded=0;orthogonalLoop=1;jettySize=auto;html=1;entryX=0.5;entryY=0;entryDx=0;entryDy=0;" edge="1" parent="WIyWlLk6GJQsqaUBKTNV-1" source="bPVKFgJAYgq4yAk7pe1J-0" target="bPVKFgJAYgq4yAk7pe1J-3">
          <mxGeometry relative="1" as="geometry" />
        </mxCell>
        <mxCell id="bPVKFgJAYgq4yAk7pe1J-0" value="初めてのデバイスか？" style="rhombus;whiteSpace=wrap;html=1;shadow=0;fontFamily=Helvetica;fontSize=12;align=center;strokeWidth=1;spacing=6;spacingTop=-4;" vertex="1" parent="WIyWlLk6GJQsqaUBKTNV-1">
          <mxGeometry x="940" y="-320" width="250" height="80" as="geometry" />
        </mxCell>
        <mxCell id="bPVKFgJAYgq4yAk7pe1J-35" style="edgeStyle=orthogonalEdgeStyle;rounded=0;orthogonalLoop=1;jettySize=auto;html=1;entryX=0.5;entryY=0;entryDx=0;entryDy=0;" edge="1" parent="WIyWlLk6GJQsqaUBKTNV-1" source="bPVKFgJAYgq4yAk7pe1J-3" target="bPVKFgJAYgq4yAk7pe1J-7">
          <mxGeometry relative="1" as="geometry" />
        </mxCell>
        <mxCell id="bPVKFgJAYgq4yAk7pe1J-3" value="Onboarding画面" style="rounded=1;whiteSpace=wrap;html=1;fontSize=12;glass=0;strokeWidth=1;shadow=0;" vertex="1" parent="WIyWlLk6GJQsqaUBKTNV-1">
          <mxGeometry x="1005" y="-180" width="120" height="40" as="geometry" />
        </mxCell>
        <mxCell id="bPVKFgJAYgq4yAk7pe1J-11" style="edgeStyle=orthogonalEdgeStyle;rounded=0;orthogonalLoop=1;jettySize=auto;html=1;entryX=0.5;entryY=0;entryDx=0;entryDy=0;" edge="1" parent="WIyWlLk6GJQsqaUBKTNV-1" source="bPVKFgJAYgq4yAk7pe1J-4" target="bPVKFgJAYgq4yAk7pe1J-7">
          <mxGeometry relative="1" as="geometry">
            <Array as="points">
              <mxPoint x="1326" y="30" />
              <mxPoint x="1065" y="30" />
            </Array>
          </mxGeometry>
        </mxCell>
        <mxCell id="bPVKFgJAYgq4yAk7pe1J-4" value="登録画面" style="rounded=1;whiteSpace=wrap;html=1;fontSize=12;glass=0;strokeWidth=1;shadow=0;" vertex="1" parent="WIyWlLk6GJQsqaUBKTNV-1">
          <mxGeometry x="1266" y="-300" width="120" height="40" as="geometry" />
        </mxCell>
        <mxCell id="bPVKFgJAYgq4yAk7pe1J-7" value="ホーム画面" style="rounded=1;whiteSpace=wrap;html=1;fontSize=12;glass=0;strokeWidth=1;shadow=0;" vertex="1" parent="WIyWlLk6GJQsqaUBKTNV-1">
          <mxGeometry x="1005" y="80" width="120" height="40" as="geometry" />
        </mxCell>
        <mxCell id="bPVKFgJAYgq4yAk7pe1J-23" value="/user/1/interests (GET)" style="edgeStyle=orthogonalEdgeStyle;rounded=0;orthogonalLoop=1;jettySize=auto;html=1;entryX=0.5;entryY=0;entryDx=0;entryDy=0;exitX=0.244;exitY=1.004;exitDx=0;exitDy=0;exitPerimeter=0;" edge="1" parent="WIyWlLk6GJQsqaUBKTNV-1" source="bPVKFgJAYgq4yAk7pe1J-13" target="bPVKFgJAYgq4yAk7pe1J-48">
          <mxGeometry relative="1" as="geometry">
            <mxPoint x="320" y="1090" as="targetPoint" />
          </mxGeometry>
        </mxCell>
        <mxCell id="bPVKFgJAYgq4yAk7pe1J-13" value="マイブーム" style="rounded=1;whiteSpace=wrap;html=1;fontSize=12;glass=0;strokeWidth=1;shadow=0;" vertex="1" parent="WIyWlLk6GJQsqaUBKTNV-1">
          <mxGeometry x="262.5" y="900" width="275" height="50" as="geometry" />
        </mxCell>
        <mxCell id="bPVKFgJAYgq4yAk7pe1J-22" value="/user/1/available-dates (PUT)" style="edgeStyle=orthogonalEdgeStyle;rounded=0;orthogonalLoop=1;jettySize=auto;html=1;exitX=0.832;exitY=1.017;exitDx=0;exitDy=0;exitPerimeter=0;entryX=0.5;entryY=0;entryDx=0;entryDy=0;" edge="1" parent="WIyWlLk6GJQsqaUBKTNV-1" source="bPVKFgJAYgq4yAk7pe1J-16" target="bPVKFgJAYgq4yAk7pe1J-46">
          <mxGeometry relative="1" as="geometry">
            <mxPoint x="560" y="880" as="targetPoint" />
            <Array as="points" />
          </mxGeometry>
        </mxCell>
        <mxCell id="bPVKFgJAYgq4yAk7pe1J-51" value="/user/1/available-dates(GET)" style="edgeStyle=orthogonalEdgeStyle;rounded=0;orthogonalLoop=1;jettySize=auto;html=1;" edge="1" parent="WIyWlLk6GJQsqaUBKTNV-1" source="bPVKFgJAYgq4yAk7pe1J-16" target="bPVKFgJAYgq4yAk7pe1J-50">
          <mxGeometry relative="1" as="geometry">
            <Array as="points">
              <mxPoint x="-40" y="970" />
              <mxPoint x="-40" y="970" />
            </Array>
          </mxGeometry>
        </mxCell>
        <mxCell id="bPVKFgJAYgq4yAk7pe1J-16" value="空いている日" style="rounded=1;whiteSpace=wrap;html=1;fontSize=12;glass=0;strokeWidth=1;shadow=0;" vertex="1" parent="WIyWlLk6GJQsqaUBKTNV-1">
          <mxGeometry x="-70" y="900" width="270" height="50" as="geometry" />
        </mxCell>
        <mxCell id="bPVKFgJAYgq4yAk7pe1J-26" value="/user/1/credit-card/1 (GET)" style="edgeStyle=orthogonalEdgeStyle;rounded=0;orthogonalLoop=1;jettySize=auto;html=1;entryX=0.5;entryY=0;entryDx=0;entryDy=0;" edge="1" parent="WIyWlLk6GJQsqaUBKTNV-1" target="bPVKFgJAYgq4yAk7pe1J-36">
          <mxGeometry relative="1" as="geometry">
            <mxPoint x="-415" y="1040" as="targetPoint" />
            <mxPoint x="-585" y="949.9999999999998" as="sourcePoint" />
          </mxGeometry>
        </mxCell>
        <mxCell id="bPVKFgJAYgq4yAk7pe1J-18" value="クレジットカード" style="rounded=1;whiteSpace=wrap;html=1;fontSize=12;glass=0;strokeWidth=1;shadow=0;" vertex="1" parent="WIyWlLk6GJQsqaUBKTNV-1">
          <mxGeometry x="-850" y="900" width="690" height="50" as="geometry" />
        </mxCell>
        <mxCell id="bPVKFgJAYgq4yAk7pe1J-28" value="/user/1/party (POST)" style="edgeStyle=orthogonalEdgeStyle;rounded=0;orthogonalLoop=1;jettySize=auto;html=1;entryX=0.5;entryY=0;entryDx=0;entryDy=0;exitX=0.08;exitY=1.002;exitDx=0;exitDy=0;exitPerimeter=0;" edge="1" parent="WIyWlLk6GJQsqaUBKTNV-1" source="bPVKFgJAYgq4yAk7pe1J-19" target="bPVKFgJAYgq4yAk7pe1J-29">
          <mxGeometry relative="1" as="geometry">
            <mxPoint x="-2080" y="980" as="targetPoint" />
            <Array as="points">
              <mxPoint x="-2485" y="743" />
              <mxPoint x="-2485" y="743" />
            </Array>
          </mxGeometry>
        </mxCell>
        <mxCell id="bPVKFgJAYgq4yAk7pe1J-31" value="/user/1/party (GET)" style="edgeStyle=orthogonalEdgeStyle;rounded=0;orthogonalLoop=1;jettySize=auto;html=1;exitX=0.41;exitY=1.039;exitDx=0;exitDy=0;exitPerimeter=0;" edge="1" parent="WIyWlLk6GJQsqaUBKTNV-1" source="bPVKFgJAYgq4yAk7pe1J-19" target="bPVKFgJAYgq4yAk7pe1J-30">
          <mxGeometry relative="1" as="geometry">
            <mxPoint x="-2370" y="820" as="targetPoint" />
          </mxGeometry>
        </mxCell>
        <mxCell id="bPVKFgJAYgq4yAk7pe1J-19" value="パーティー" style="rounded=1;whiteSpace=wrap;html=1;fontSize=12;glass=0;strokeWidth=1;shadow=0;" vertex="1" parent="WIyWlLk6GJQsqaUBKTNV-1">
          <mxGeometry x="-2530" y="690" width="560" height="50" as="geometry" />
        </mxCell>
        <mxCell id="bPVKFgJAYgq4yAk7pe1J-27" value="/user/1/bucket-list-items (GET)" style="edgeStyle=orthogonalEdgeStyle;rounded=0;orthogonalLoop=1;jettySize=auto;html=1;entryX=0.5;entryY=0;entryDx=0;entryDy=0;" edge="1" parent="WIyWlLk6GJQsqaUBKTNV-1" source="bPVKFgJAYgq4yAk7pe1J-24" target="bPVKFgJAYgq4yAk7pe1J-55">
          <mxGeometry relative="1" as="geometry">
            <mxPoint x="611" y="1050" as="targetPoint" />
            <Array as="points">
              <mxPoint x="676" y="1010" />
              <mxPoint x="676" y="1010" />
            </Array>
          </mxGeometry>
        </mxCell>
        <mxCell id="bPVKFgJAYgq4yAk7pe1J-24" value="バケットリスト変更" style="rounded=1;whiteSpace=wrap;html=1;fontSize=12;glass=0;strokeWidth=1;shadow=0;" vertex="1" parent="WIyWlLk6GJQsqaUBKTNV-1">
          <mxGeometry x="590" y="900" width="290" height="50" as="geometry" />
        </mxCell>
        <mxCell id="bPVKFgJAYgq4yAk7pe1J-29" value="作成" style="rounded=1;whiteSpace=wrap;html=1;fontSize=12;glass=0;strokeWidth=1;shadow=0;" vertex="1" parent="WIyWlLk6GJQsqaUBKTNV-1">
          <mxGeometry x="-2530" y="830" width="90" height="50" as="geometry" />
        </mxCell>
        <mxCell id="bPVKFgJAYgq4yAk7pe1J-30" value="全て取得" style="rounded=1;whiteSpace=wrap;html=1;fontSize=12;glass=0;strokeWidth=1;shadow=0;" vertex="1" parent="WIyWlLk6GJQsqaUBKTNV-1">
          <mxGeometry x="-2344" y="830" width="90" height="50" as="geometry" />
        </mxCell>
        <mxCell id="bPVKFgJAYgq4yAk7pe1J-32" value="取得" style="rounded=1;whiteSpace=wrap;html=1;fontSize=12;glass=0;strokeWidth=1;shadow=0;" vertex="1" parent="WIyWlLk6GJQsqaUBKTNV-1">
          <mxGeometry x="-2160" y="830" width="90" height="50" as="geometry" />
        </mxCell>
        <mxCell id="bPVKFgJAYgq4yAk7pe1J-33" value="/user/1/party/12 (GET)" style="edgeStyle=orthogonalEdgeStyle;rounded=0;orthogonalLoop=1;jettySize=auto;html=1;exitX=0.739;exitY=1.006;exitDx=0;exitDy=0;exitPerimeter=0;" edge="1" parent="WIyWlLk6GJQsqaUBKTNV-1" source="bPVKFgJAYgq4yAk7pe1J-19" target="bPVKFgJAYgq4yAk7pe1J-32">
          <mxGeometry relative="1" as="geometry">
            <mxPoint x="-2290.4" y="751.95" as="sourcePoint" />
            <mxPoint x="-2289" y="840" as="targetPoint" />
          </mxGeometry>
        </mxCell>
        <mxCell id="bPVKFgJAYgq4yAk7pe1J-36" value="取得" style="rounded=1;whiteSpace=wrap;html=1;fontSize=12;glass=0;strokeWidth=1;shadow=0;" vertex="1" parent="WIyWlLk6GJQsqaUBKTNV-1">
          <mxGeometry x="-630" y="1040" width="90" height="50" as="geometry" />
        </mxCell>
        <mxCell id="bPVKFgJAYgq4yAk7pe1J-38" value="/user/1/credit-card (GET)" style="edgeStyle=orthogonalEdgeStyle;rounded=0;orthogonalLoop=1;jettySize=auto;html=1;entryX=0.5;entryY=0;entryDx=0;entryDy=0;" edge="1" parent="WIyWlLk6GJQsqaUBKTNV-1" target="bPVKFgJAYgq4yAk7pe1J-39">
          <mxGeometry relative="1" as="geometry">
            <mxPoint x="-595" y="1040" as="targetPoint" />
            <mxPoint x="-765" y="949.9999999999998" as="sourcePoint" />
          </mxGeometry>
        </mxCell>
        <mxCell id="bPVKFgJAYgq4yAk7pe1J-39" value="一覧取得" style="rounded=1;whiteSpace=wrap;html=1;fontSize=12;glass=0;strokeWidth=1;shadow=0;" vertex="1" parent="WIyWlLk6GJQsqaUBKTNV-1">
          <mxGeometry x="-810" y="1040" width="90" height="50" as="geometry" />
        </mxCell>
        <mxCell id="bPVKFgJAYgq4yAk7pe1J-40" value="/user/1/credit-card (POST)" style="edgeStyle=orthogonalEdgeStyle;rounded=0;orthogonalLoop=1;jettySize=auto;html=1;entryX=0.5;entryY=0;entryDx=0;entryDy=0;" edge="1" parent="WIyWlLk6GJQsqaUBKTNV-1" target="bPVKFgJAYgq4yAk7pe1J-41">
          <mxGeometry relative="1" as="geometry">
            <mxPoint x="-235" y="1040" as="targetPoint" />
            <mxPoint x="-405" y="949.9999999999998" as="sourcePoint" />
          </mxGeometry>
        </mxCell>
        <mxCell id="bPVKFgJAYgq4yAk7pe1J-41" value="追加" style="rounded=1;whiteSpace=wrap;html=1;fontSize=12;glass=0;strokeWidth=1;shadow=0;" vertex="1" parent="WIyWlLk6GJQsqaUBKTNV-1">
          <mxGeometry x="-450" y="1040" width="90" height="50" as="geometry" />
        </mxCell>
        <mxCell id="bPVKFgJAYgq4yAk7pe1J-42" value="/user/1/credit-card/1 (DELETE)" style="edgeStyle=orthogonalEdgeStyle;rounded=0;orthogonalLoop=1;jettySize=auto;html=1;entryX=0.5;entryY=0;entryDx=0;entryDy=0;" edge="1" parent="WIyWlLk6GJQsqaUBKTNV-1" target="bPVKFgJAYgq4yAk7pe1J-43">
          <mxGeometry relative="1" as="geometry">
            <mxPoint x="-55" y="1040" as="targetPoint" />
            <mxPoint x="-225" y="949.9999999999998" as="sourcePoint" />
          </mxGeometry>
        </mxCell>
        <mxCell id="bPVKFgJAYgq4yAk7pe1J-43" value="削除" style="rounded=1;whiteSpace=wrap;html=1;fontSize=12;glass=0;strokeWidth=1;shadow=0;" vertex="1" parent="WIyWlLk6GJQsqaUBKTNV-1">
          <mxGeometry x="-270" y="1040" width="90" height="50" as="geometry" />
        </mxCell>
        <mxCell id="bPVKFgJAYgq4yAk7pe1J-44" value="料金帯" style="rounded=1;whiteSpace=wrap;html=1;fontSize=12;glass=0;strokeWidth=1;shadow=0;" vertex="1" parent="WIyWlLk6GJQsqaUBKTNV-1">
          <mxGeometry x="1025.5" y="1220" width="140" height="50" as="geometry" />
        </mxCell>
        <mxCell id="bPVKFgJAYgq4yAk7pe1J-78" style="edgeStyle=orthogonalEdgeStyle;rounded=0;orthogonalLoop=1;jettySize=auto;html=1;" edge="1" parent="WIyWlLk6GJQsqaUBKTNV-1" source="bPVKFgJAYgq4yAk7pe1J-45" target="bPVKFgJAYgq4yAk7pe1J-13">
          <mxGeometry relative="1" as="geometry" />
        </mxCell>
        <mxCell id="bPVKFgJAYgq4yAk7pe1J-79" style="edgeStyle=orthogonalEdgeStyle;rounded=0;orthogonalLoop=1;jettySize=auto;html=1;" edge="1" parent="WIyWlLk6GJQsqaUBKTNV-1" source="bPVKFgJAYgq4yAk7pe1J-45" target="bPVKFgJAYgq4yAk7pe1J-16">
          <mxGeometry relative="1" as="geometry" />
        </mxCell>
        <mxCell id="bPVKFgJAYgq4yAk7pe1J-87" style="edgeStyle=orthogonalEdgeStyle;rounded=0;orthogonalLoop=1;jettySize=auto;html=1;" edge="1" parent="WIyWlLk6GJQsqaUBKTNV-1" source="bPVKFgJAYgq4yAk7pe1J-45" target="bPVKFgJAYgq4yAk7pe1J-82">
          <mxGeometry relative="1" as="geometry" />
        </mxCell>
        <mxCell id="bPVKFgJAYgq4yAk7pe1J-88" style="edgeStyle=orthogonalEdgeStyle;rounded=0;orthogonalLoop=1;jettySize=auto;html=1;" edge="1" parent="WIyWlLk6GJQsqaUBKTNV-1" source="bPVKFgJAYgq4yAk7pe1J-45" target="bPVKFgJAYgq4yAk7pe1J-24">
          <mxGeometry relative="1" as="geometry" />
        </mxCell>
        <mxCell id="bPVKFgJAYgq4yAk7pe1J-91" style="edgeStyle=orthogonalEdgeStyle;rounded=0;orthogonalLoop=1;jettySize=auto;html=1;" edge="1" parent="WIyWlLk6GJQsqaUBKTNV-1" source="bPVKFgJAYgq4yAk7pe1J-45" target="bPVKFgJAYgq4yAk7pe1J-18">
          <mxGeometry relative="1" as="geometry" />
        </mxCell>
        <mxCell id="bPVKFgJAYgq4yAk7pe1J-45" value="ユーザー" style="rounded=1;whiteSpace=wrap;html=1;fontSize=12;glass=0;strokeWidth=1;shadow=0;" vertex="1" parent="WIyWlLk6GJQsqaUBKTNV-1">
          <mxGeometry x="-760" y="690" width="2230" height="50" as="geometry" />
        </mxCell>
        <mxCell id="bPVKFgJAYgq4yAk7pe1J-46" value="更新" style="rounded=1;whiteSpace=wrap;html=1;fontSize=12;glass=0;strokeWidth=1;shadow=0;" vertex="1" parent="WIyWlLk6GJQsqaUBKTNV-1">
          <mxGeometry x="95" y="1060" width="120" height="50" as="geometry" />
        </mxCell>
        <mxCell id="bPVKFgJAYgq4yAk7pe1J-48" value="一覧取得" style="rounded=1;whiteSpace=wrap;html=1;fontSize=12;glass=0;strokeWidth=1;shadow=0;" vertex="1" parent="WIyWlLk6GJQsqaUBKTNV-1">
          <mxGeometry x="270" y="1060" width="120" height="50" as="geometry" />
        </mxCell>
        <mxCell id="bPVKFgJAYgq4yAk7pe1J-50" value="一覧取得" style="rounded=1;whiteSpace=wrap;html=1;fontSize=12;glass=0;strokeWidth=1;shadow=0;" vertex="1" parent="WIyWlLk6GJQsqaUBKTNV-1">
          <mxGeometry x="-100" y="1060" width="120" height="50" as="geometry" />
        </mxCell>
        <mxCell id="bPVKFgJAYgq4yAk7pe1J-53" value="/user/1/interests (PUT)" style="edgeStyle=orthogonalEdgeStyle;rounded=0;orthogonalLoop=1;jettySize=auto;html=1;entryX=0.5;entryY=0;entryDx=0;entryDy=0;exitX=0.244;exitY=1.004;exitDx=0;exitDy=0;exitPerimeter=0;" edge="1" parent="WIyWlLk6GJQsqaUBKTNV-1" target="bPVKFgJAYgq4yAk7pe1J-54">
          <mxGeometry relative="1" as="geometry">
            <mxPoint x="480" y="1089.8" as="targetPoint" />
            <mxPoint x="489.5999999999999" y="950" as="sourcePoint" />
          </mxGeometry>
        </mxCell>
        <mxCell id="bPVKFgJAYgq4yAk7pe1J-54" value="更新" style="rounded=1;whiteSpace=wrap;html=1;fontSize=12;glass=0;strokeWidth=1;shadow=0;" vertex="1" parent="WIyWlLk6GJQsqaUBKTNV-1">
          <mxGeometry x="430" y="1059.8" width="120" height="50" as="geometry" />
        </mxCell>
        <mxCell id="bPVKFgJAYgq4yAk7pe1J-55" value="一覧取得" style="rounded=1;whiteSpace=wrap;html=1;fontSize=12;glass=0;strokeWidth=1;shadow=0;" vertex="1" parent="WIyWlLk6GJQsqaUBKTNV-1">
          <mxGeometry x="621" y="1060" width="110" height="50" as="geometry" />
        </mxCell>
        <mxCell id="bPVKFgJAYgq4yAk7pe1J-56" value="/user/1/bucket-list-items (PUT)" style="edgeStyle=orthogonalEdgeStyle;rounded=0;orthogonalLoop=1;jettySize=auto;html=1;entryX=0.5;entryY=0;entryDx=0;entryDy=0;" edge="1" parent="WIyWlLk6GJQsqaUBKTNV-1" target="bPVKFgJAYgq4yAk7pe1J-57">
          <mxGeometry relative="1" as="geometry">
            <mxPoint x="781" y="1050" as="targetPoint" />
            <mxPoint x="846" y="950" as="sourcePoint" />
            <Array as="points">
              <mxPoint x="846" y="1010" />
              <mxPoint x="846" y="1010" />
            </Array>
          </mxGeometry>
        </mxCell>
        <mxCell id="bPVKFgJAYgq4yAk7pe1J-57" value="一覧取得" style="rounded=1;whiteSpace=wrap;html=1;fontSize=12;glass=0;strokeWidth=1;shadow=0;" vertex="1" parent="WIyWlLk6GJQsqaUBKTNV-1">
          <mxGeometry x="791" y="1060" width="110" height="50" as="geometry" />
        </mxCell>
        <mxCell id="bPVKFgJAYgq4yAk7pe1J-62" value="/user/1/pricing-range (PUT)" style="edgeStyle=orthogonalEdgeStyle;rounded=0;orthogonalLoop=1;jettySize=auto;html=1;entryX=0.5;entryY=0;entryDx=0;entryDy=0;exitX=0.5;exitY=1;exitDx=0;exitDy=0;" edge="1" parent="WIyWlLk6GJQsqaUBKTNV-1" target="bPVKFgJAYgq4yAk7pe1J-63" source="bPVKFgJAYgq4yAk7pe1J-44">
          <mxGeometry relative="1" as="geometry">
            <mxPoint x="1196" y="1369.8" as="targetPoint" />
            <mxPoint x="1261" y="1269.8" as="sourcePoint" />
            <Array as="points">
              <mxPoint x="1096" y="1350" />
              <mxPoint x="1096" y="1350" />
            </Array>
          </mxGeometry>
        </mxCell>
        <mxCell id="bPVKFgJAYgq4yAk7pe1J-63" value="更新" style="rounded=1;whiteSpace=wrap;html=1;fontSize=12;glass=0;strokeWidth=1;shadow=0;" vertex="1" parent="WIyWlLk6GJQsqaUBKTNV-1">
          <mxGeometry x="1040.5" y="1370" width="110" height="50" as="geometry" />
        </mxCell>
        <mxCell id="bPVKFgJAYgq4yAk7pe1J-64" value="距離" style="rounded=1;whiteSpace=wrap;html=1;fontSize=12;glass=0;strokeWidth=1;shadow=0;" vertex="1" parent="WIyWlLk6GJQsqaUBKTNV-1">
          <mxGeometry x="1230" y="1220" width="139" height="50" as="geometry" />
        </mxCell>
        <mxCell id="bPVKFgJAYgq4yAk7pe1J-67" value="/user/1/distance (PUT)" style="edgeStyle=orthogonalEdgeStyle;rounded=0;orthogonalLoop=1;jettySize=auto;html=1;entryX=0.5;entryY=0;entryDx=0;entryDy=0;exitX=0.5;exitY=1;exitDx=0;exitDy=0;" edge="1" parent="WIyWlLk6GJQsqaUBKTNV-1" target="bPVKFgJAYgq4yAk7pe1J-68" source="bPVKFgJAYgq4yAk7pe1J-64">
          <mxGeometry relative="1" as="geometry">
            <mxPoint x="1576" y="1370" as="targetPoint" />
            <mxPoint x="1641" y="1270" as="sourcePoint" />
            <Array as="points">
              <mxPoint x="1300" y="1330" />
              <mxPoint x="1299" y="1380" />
            </Array>
          </mxGeometry>
        </mxCell>
        <mxCell id="bPVKFgJAYgq4yAk7pe1J-68" value="更新" style="rounded=1;whiteSpace=wrap;html=1;fontSize=12;glass=0;strokeWidth=1;shadow=0;" vertex="1" parent="WIyWlLk6GJQsqaUBKTNV-1">
          <mxGeometry x="1244.5" y="1370" width="110" height="50" as="geometry" />
        </mxCell>
        <mxCell id="bPVKFgJAYgq4yAk7pe1J-69" value="時間" style="rounded=1;whiteSpace=wrap;html=1;fontSize=12;glass=0;strokeWidth=1;shadow=0;" vertex="1" parent="WIyWlLk6GJQsqaUBKTNV-1">
          <mxGeometry x="1420" y="1220" width="130" height="50" as="geometry" />
        </mxCell>
        <mxCell id="bPVKFgJAYgq4yAk7pe1J-72" value="/user/1/duration (PUT)" style="edgeStyle=orthogonalEdgeStyle;rounded=0;orthogonalLoop=1;jettySize=auto;html=1;entryX=0.5;entryY=0;entryDx=0;entryDy=0;exitX=0.5;exitY=1;exitDx=0;exitDy=0;" edge="1" parent="WIyWlLk6GJQsqaUBKTNV-1" target="bPVKFgJAYgq4yAk7pe1J-73" source="bPVKFgJAYgq4yAk7pe1J-69">
          <mxGeometry relative="1" as="geometry">
            <mxPoint x="1945" y="1369.8" as="targetPoint" />
            <mxPoint x="2010" y="1269.7999999999997" as="sourcePoint" />
            <Array as="points">
              <mxPoint x="1485" y="1330" />
              <mxPoint x="1485" y="1330" />
            </Array>
          </mxGeometry>
        </mxCell>
        <mxCell id="bPVKFgJAYgq4yAk7pe1J-73" value="更新" style="rounded=1;whiteSpace=wrap;html=1;fontSize=12;glass=0;strokeWidth=1;shadow=0;" vertex="1" parent="WIyWlLk6GJQsqaUBKTNV-1">
          <mxGeometry x="1430" y="1370" width="110" height="50" as="geometry" />
        </mxCell>
        <mxCell id="bPVKFgJAYgq4yAk7pe1J-84" style="edgeStyle=orthogonalEdgeStyle;rounded=0;orthogonalLoop=1;jettySize=auto;html=1;" edge="1" parent="WIyWlLk6GJQsqaUBKTNV-1" source="bPVKFgJAYgq4yAk7pe1J-82" target="bPVKFgJAYgq4yAk7pe1J-44">
          <mxGeometry relative="1" as="geometry">
            <Array as="points">
              <mxPoint x="1176" y="1080" />
              <mxPoint x="1096" y="1080" />
            </Array>
          </mxGeometry>
        </mxCell>
        <mxCell id="bPVKFgJAYgq4yAk7pe1J-85" style="edgeStyle=orthogonalEdgeStyle;rounded=0;orthogonalLoop=1;jettySize=auto;html=1;" edge="1" parent="WIyWlLk6GJQsqaUBKTNV-1" source="bPVKFgJAYgq4yAk7pe1J-82" target="bPVKFgJAYgq4yAk7pe1J-64">
          <mxGeometry relative="1" as="geometry">
            <Array as="points">
              <mxPoint x="1176" y="1080" />
              <mxPoint x="1300" y="1080" />
            </Array>
          </mxGeometry>
        </mxCell>
        <mxCell id="bPVKFgJAYgq4yAk7pe1J-86" style="edgeStyle=orthogonalEdgeStyle;rounded=0;orthogonalLoop=1;jettySize=auto;html=1;" edge="1" parent="WIyWlLk6GJQsqaUBKTNV-1" source="bPVKFgJAYgq4yAk7pe1J-82" target="bPVKFgJAYgq4yAk7pe1J-69">
          <mxGeometry relative="1" as="geometry">
            <Array as="points">
              <mxPoint x="1176" y="1080" />
              <mxPoint x="1485" y="1080" />
            </Array>
          </mxGeometry>
        </mxCell>
        <mxCell id="bPVKFgJAYgq4yAk7pe1J-82" value="イベント" style="rounded=1;whiteSpace=wrap;html=1;fontSize=12;glass=0;strokeWidth=1;shadow=0;" vertex="1" parent="WIyWlLk6GJQsqaUBKTNV-1">
          <mxGeometry x="1011" y="900" width="330" height="50" as="geometry" />
        </mxCell>
        <mxCell id="bPVKFgJAYgq4yAk7pe1J-89" value="/user/1/event (GET)" style="edgeStyle=orthogonalEdgeStyle;rounded=0;orthogonalLoop=1;jettySize=auto;html=1;entryX=0.5;entryY=0;entryDx=0;entryDy=0;exitX=0.5;exitY=1;exitDx=0;exitDy=0;" edge="1" parent="WIyWlLk6GJQsqaUBKTNV-1" target="bPVKFgJAYgq4yAk7pe1J-90" source="bPVKFgJAYgq4yAk7pe1J-82">
          <mxGeometry relative="1" as="geometry">
            <mxPoint x="1045.5" y="1369.8" as="targetPoint" />
            <mxPoint x="945" y="1270" as="sourcePoint" />
            <Array as="points">
              <mxPoint x="1176" y="1080" />
              <mxPoint x="945" y="1080" />
            </Array>
          </mxGeometry>
        </mxCell>
        <mxCell id="bPVKFgJAYgq4yAk7pe1J-90" value="取得" style="rounded=1;whiteSpace=wrap;html=1;fontSize=12;glass=0;strokeWidth=1;shadow=0;" vertex="1" parent="WIyWlLk6GJQsqaUBKTNV-1">
          <mxGeometry x="890" y="1370" width="110" height="50" as="geometry" />
        </mxCell>
        <mxCell id="bPVKFgJAYgq4yAk7pe1J-92" value="登録" style="rounded=1;whiteSpace=wrap;html=1;fontSize=12;glass=0;strokeWidth=1;shadow=0;" vertex="1" parent="WIyWlLk6GJQsqaUBKTNV-1">
          <mxGeometry x="-90" y="380" width="230" height="50" as="geometry" />
        </mxCell>
        <mxCell id="bPVKFgJAYgq4yAk7pe1J-93" value="ログイン" style="rounded=1;whiteSpace=wrap;html=1;fontSize=12;glass=0;strokeWidth=1;shadow=0;" vertex="1" parent="WIyWlLk6GJQsqaUBKTNV-1">
          <mxGeometry x="570" y="380" width="230" height="50" as="geometry" />
        </mxCell>
        <mxCell id="bPVKFgJAYgq4yAk7pe1J-95" style="edgeStyle=orthogonalEdgeStyle;rounded=0;orthogonalLoop=1;jettySize=auto;html=1;entryX=0.5;entryY=0;entryDx=0;entryDy=0;" edge="1" parent="WIyWlLk6GJQsqaUBKTNV-1" source="bPVKFgJAYgq4yAk7pe1J-94" target="bPVKFgJAYgq4yAk7pe1J-45">
          <mxGeometry relative="1" as="geometry" />
        </mxCell>
        <mxCell id="bPVKFgJAYgq4yAk7pe1J-96" value="/register" style="edgeStyle=orthogonalEdgeStyle;rounded=0;orthogonalLoop=1;jettySize=auto;html=1;entryX=0.5;entryY=0;entryDx=0;entryDy=0;" edge="1" parent="WIyWlLk6GJQsqaUBKTNV-1" source="bPVKFgJAYgq4yAk7pe1J-94" target="bPVKFgJAYgq4yAk7pe1J-92">
          <mxGeometry relative="1" as="geometry" />
        </mxCell>
        <mxCell id="bPVKFgJAYgq4yAk7pe1J-97" value="/login" style="edgeStyle=orthogonalEdgeStyle;rounded=0;orthogonalLoop=1;jettySize=auto;html=1;entryX=0.5;entryY=0;entryDx=0;entryDy=0;" edge="1" parent="WIyWlLk6GJQsqaUBKTNV-1" source="bPVKFgJAYgq4yAk7pe1J-94" target="bPVKFgJAYgq4yAk7pe1J-93">
          <mxGeometry relative="1" as="geometry" />
        </mxCell>
        <mxCell id="bPVKFgJAYgq4yAk7pe1J-94" value="API GATEWAY" style="rounded=1;whiteSpace=wrap;html=1;fontSize=12;glass=0;strokeWidth=1;shadow=0;" vertex="1" parent="WIyWlLk6GJQsqaUBKTNV-1">
          <mxGeometry x="240" y="240" width="230" height="50" as="geometry" />
        </mxCell>
      </root>
    </mxGraphModel>
  </diagram>
</mxfile>
